<svg xmlns="http://www.w3.org/2000/svg" viewBox="0 0 400 400" role="img" aria-labelledby="title">
  <title id="title">Colorful abstract painting</title>
  <defs>
    <linearGradient id="background" x1="0" y1="0" x2="1" y2="1">
      <stop stop-color="#30214d"/>
      <stop offset="1" stop-color="#d35400"/>
    </linearGradient>
    <filter id="soften">
      <feGaussianBlur stdDeviation="10"/>
    </filter>
  </defs>
  <rect width="400" height="400" fill="#f4eee7"/>
  <rect x="35" y="35" width="330" height="330" rx="8" fill="url(#background)"/>
  <g filter="url(#soften)" opacity=".9">
    <ellipse cx="142" cy="154" rx="83" ry="59" fill="#ffc857" transform="rotate(-32 142 154)"/>
    <ellipse cx="265" cy="235" rx="93" ry="68" fill="#f06b55" transform="rotate(37 265 235)"/>
    <ellipse cx="156" cy="281" rx="66" ry="38" fill="#55b9a8" transform="rotate(-18 156 281)"/>
  </g>
  <path d="M64 214c53-70 88-73 123-14s72 57 146-25" fill="none" stroke="#fff4dc" stroke-linecap="round" stroke-width="13" opacity=".84"/>
  <path d="M92 105c38 34 68 32 98-7m33 177c28-35 59-40 98-16" fill="none" stroke="#241d36" stroke-linecap="round" stroke-width="8" opacity=".72"/>
</svg>
